<?xml version="1.0" encoding="utf-8"?>
<!-- Generator: Adobe Illustrator 23.0.6, SVG Export Plug-In . SVG Version: 6.00 Build 0)  -->
<svg version="1.1" id="Layer_1" xmlns="http://www.w3.org/2000/svg" xmlns:xlink="http://www.w3.org/1999/xlink" x="0px" y="0px"
	 viewBox="0 0 651.9 192" style="enable-background:new 0 0 651.9 192;" xml:space="preserve">
<style type="text/css">
	.st0{fill:none;}
	.st1{clip-path:url(#SVGID_2_);}
	.st2{fill:#FFA000;}
	.st3{opacity:0.12;fill:url(#SVGID_3_);enable-background:new    ;}
	.st4{fill:#F57C00;}
	.st5{opacity:0.2;fill:url(#SVGID_4_);enable-background:new    ;}
	.st6{fill:#FFCA28;}
	.st7{fill:#FFFFFF;fill-opacity:0.2;}
	.st8{opacity:0.2;fill:#A52714;enable-background:new    ;}
	.st9{fill:url(#SVGID_5_);}
	.st10{opacity:0.54;}
</style>
<g>
	<g>
		<g id="XMLID_19_">
			<rect id="XMLID_21_" class="st0" width="192" height="192"/>
			<g>
				<g>
					<defs>
						<path id="SVGID_1_" d="M143.5,47.4c-0.4-2.2-2.4-3.6-4.6-3.3c-0.8,0.1-1.6,0.5-2.2,1.1L115.9,66L99.6,34.9
							c-1-2-3.4-2.7-5.4-1.7c-0.7,0.4-1.3,1-1.7,1.7l-8.9,17L61.2,10.1c-1-1.9-3.5-2.7-5.4-1.6c-1.1,0.6-1.9,1.7-2.1,2.9L32,150
							l57.9,32.5c3.6,2,8.1,2,11.7,0L160,150L143.5,47.4z"/>
					</defs>
					<clipPath id="SVGID_2_">
						<use xlink:href="#SVGID_1_"  style="overflow:visible;"/>
					</clipPath>
					<g class="st1">
						<path class="st2" d="M32,150L53.7,11.4c0.3-2.2,2.4-3.7,4.6-3.3c1.2,0.2,2.3,1,2.9,2.1L83.6,52l8.9-17c1-2,3.4-2.7,5.4-1.7
							c0.7,0.4,1.3,1,1.7,1.7L160,150H32z"/>
						
							<linearGradient id="SVGID_3_" gradientUnits="userSpaceOnUse" x1="56.9401" y1="852.5651" x2="48.9401" y2="848.3851" gradientTransform="matrix(1 0 0 1 0 -750.0064)">
							<stop  offset="0" style="stop-color:#A52714"/>
							<stop  offset="0.4" style="stop-color:#A52714;stop-opacity:0.5"/>
							<stop  offset="0.8" style="stop-color:#A52714;stop-opacity:0"/>
						</linearGradient>
						<path class="st3" d="M106,9L0,0v192l32-42L106,9z"/>
						<path class="st4" d="M106.9,96L83.6,51.9L32,150L106.9,96z"/>
						
							<linearGradient id="SVGID_4_" gradientUnits="userSpaceOnUse" x1="90.9289" y1="840.9354" x2="87.3489" y2="837.3553" gradientTransform="matrix(1 0 0 1 0 -750.0064)">
							<stop  offset="0" style="stop-color:#A52714;stop-opacity:0.8"/>
							<stop  offset="0.5" style="stop-color:#A52714;stop-opacity:0.21"/>
							<stop  offset="1" style="stop-color:#A52714;stop-opacity:0"/>
						</linearGradient>
						<path class="st5" d="M0,0h192v192H0C0,192,0,0,0,0z"/>
						<path class="st6" d="M160,150L143.4,47.3c-0.4-2.2-2.4-3.6-4.6-3.3c-0.8,0.1-1.6,0.5-2.2,1.1L32,150l57.9,32.5
							c3.6,2,8.1,2,11.7,0L160,150z"/>
						<path class="st7" d="M143.5,47.4c-0.4-2.2-2.4-3.6-4.6-3.3c-0.8,0.1-1.6,0.5-2.2,1.1L115.9,66L99.6,34.9c-1-2-3.4-2.7-5.4-1.7
							c-0.7,0.4-1.3,1-1.7,1.7l-8.9,17L61.2,10.1c-1-1.9-3.5-2.7-5.4-1.6c-1.1,0.6-1.9,1.7-2.1,2.9L32,150h-0.1l0.1,0.1l0.6,0.3
							L115.9,67l20.8-20.8c1.6-1.6,4.1-1.6,5.7,0c0.6,0.6,1,1.3,1.1,2.2l16.4,101.7l0.2-0.1L143.5,47.4z M32.2,149.8L53.7,12.4
							c0.3-2.2,2.4-3.7,4.6-3.3c1.2,0.2,2.3,1,2.9,2.1L83.6,53l8.9-17c1-2,3.4-2.7,5.4-1.7c0.7,0.4,1.3,1,1.7,1.7l16,30.4
							L32.2,149.8z"/>
						<path class="st8" d="M101.6,181.5c-3.6,2-8.1,2-11.7,0l-57.8-32.4L32,150l57.9,32.5c3.6,2,8.1,2,11.7,0L160,150l-0.1-0.9
							L101.6,181.5z"/>
						
							<linearGradient id="SVGID_5_" gradientUnits="userSpaceOnUse" x1="-995.0016" y1="-898.4243" x2="-944.9316" y2="-948.4943" gradientTransform="matrix(2.67 0 0 -2.67 2685.2029 -2359.8147)">
							<stop  offset="0" style="stop-color:#FFFFFF;stop-opacity:0.1"/>
							<stop  offset="1" style="stop-color:#FFFFFF;stop-opacity:0"/>
						</linearGradient>
						<path class="st9" d="M143.5,47.4c-0.4-2.2-2.4-3.6-4.6-3.3c-0.8,0.1-1.6,0.5-2.2,1.1L115.9,66L99.6,34.9c-1-2-3.4-2.7-5.4-1.7
							c-0.7,0.4-1.3,1-1.7,1.7l-8.9,17L61.2,10.1c-1-1.9-3.5-2.7-5.4-1.6c-1.1,0.6-1.9,1.7-2.1,2.9L32,150l57.9,32.5
							c3.6,2,8.1,2,11.7,0L160,150L143.5,47.4z"/>
					</g>
				</g>
			</g>
		</g>
		<g class="st10">
			<path d="M224,146h-11.8V54.4h53.5v11.3H224v30.1h37.7v11h-37.6V146H224z"/>
			<path d="M286,67.6c-1.6,1.6-3.6,2.4-5.9,2.4s-4.3-0.8-5.9-2.4c-1.6-1.6-2.4-3.6-2.4-5.9s0.8-4.3,2.4-5.9c1.6-1.6,3.6-2.4,5.9-2.4
				s4.3,0.8,5.9,2.4c1.6,1.6,2.4,3.6,2.4,5.9S287.6,65.9,286,67.6z M286,146h-11.8V83.3H286V146z"/>
			<path d="M310.6,146h-11.8V83.3h11.3v10.2h0.5c1.2-3.4,3.6-6.2,7.4-8.4c3.7-2.2,7.3-3.3,10.8-3.3s6.4,0.5,8.8,1.5l-4.5,11
				c-1.5-0.6-3.6-0.9-6.3-0.9c-4.3,0-8,1.7-11.3,5.1c-3.3,3.4-4.9,7.8-4.9,13.2V146z"/>
			<path d="M366,148.1c-9.5,0-17.2-3.2-23.1-9.5s-8.9-14.3-8.9-23.9c0-9.1,2.9-17,8.6-23.6c5.8-6.6,13.1-9.9,22.1-9.9
				c9.3,0,16.7,3,22.3,9.1c5.6,6.1,8.4,14.2,8.4,24.3l-0.1,2.2h-49.5c0.3,6.3,2.5,11.3,6.3,15c3.9,3.7,8.4,5.5,13.6,5.5
				c8.4,0,14.2-3.6,17.2-10.8l10.5,4.4c-2,4.9-5.4,8.9-10.1,12.2S372.8,148.1,366,148.1z M382.9,107.1c-0.3-3.6-1.9-7-4.9-10.2
				s-7.5-4.9-13.5-4.9c-4.4,0-8.1,1.4-11.3,4.1c-3.2,2.7-5.4,6.4-6.6,11L382.9,107.1L382.9,107.1z"/>
			<path d="M436.8,148.1c-4.8,0-9.1-1-12.9-3.1c-3.8-2-6.6-4.6-8.5-7.7h-0.5v8.7h-11.3V54.4h11.8v28.9l-0.5,8.7h0.5
				c1.9-3.1,4.7-5.6,8.5-7.7c3.8-2,8.1-3.1,12.9-3.1c8.1,0,15.1,3.2,21,9.6s8.8,14.3,8.8,23.8s-2.9,17.4-8.8,23.8
				C451.9,144.9,444.9,148.1,436.8,148.1z M434.8,137.3c5.5,0,10.2-2.1,14.1-6.2c3.9-4.1,5.9-9.6,5.9-16.4c0-6.8-2-12.3-5.9-16.4
				c-3.9-4.1-8.6-6.2-14.1-6.2s-10.3,2-14.1,6.1s-5.8,9.6-5.8,16.5s1.9,12.4,5.8,16.5C424.6,135.3,429.3,137.3,434.8,137.3z"/>
			<path d="M495.9,148.1c-6.7,0-12.2-1.9-16.7-5.8c-4.5-3.8-6.7-8.9-6.7-15.2c0-6.8,2.6-12.2,7.9-16.1c5.3-3.9,11.8-5.8,19.6-5.8
				c6.9,0,12.6,1.3,17,3.8v-1.8c0-4.6-1.6-8.3-4.7-11.1c-3.2-2.8-7-4.2-11.6-4.2c-3.4,0-6.5,0.8-9.3,2.4c-2.8,1.6-4.7,3.8-5.7,6.7
				l-10.8-4.6c1.5-3.8,4.3-7.2,8.6-10.4s9.9-4.8,16.9-4.8c8,0,14.7,2.3,20,7s7.9,11.3,7.9,19.8v38H517v-8.7h-0.5
				C511.8,144.5,504.9,148.1,495.9,148.1z M497.8,137.3c4.9,0,9.3-1.8,13.2-5.4c4-3.6,6-7.9,6-12.9c-3.3-2.7-8.3-4.1-15-4.1
				c-5.7,0-10,1.2-12.9,3.7s-4.4,5.4-4.4,8.7c0,3.1,1.3,5.5,4,7.3C491.4,136.4,494.4,137.3,497.8,137.3z"/>
			<path d="M561,148.1c-7,0-12.8-1.7-17.3-5.1c-4.6-3.4-7.9-7.7-10-12.8l10.5-4.4c3.3,7.9,9,11.8,17,11.8c3.7,0,6.7-0.8,9-2.4
				c2.3-1.6,3.5-3.8,3.5-6.4c0-4.1-2.9-6.9-8.6-8.3l-12.7-3.1c-4-1-7.8-3-11.4-5.8c-3.6-2.9-5.4-6.7-5.4-11.6c0-5.5,2.5-10,7.4-13.5
				s10.7-5.2,17.5-5.2c5.5,0,10.5,1.3,14.8,3.8c4.4,2.5,7.5,6.1,9.3,10.8l-10.2,4.2c-2.3-5.5-7.1-8.3-14.3-8.3
				c-3.5,0-6.4,0.7-8.8,2.2c-2.4,1.5-3.6,3.4-3.6,5.9c0,3.6,2.8,6,8.3,7.3l12.4,2.9c5.9,1.4,10.2,3.7,13.1,7
				c2.8,3.3,4.2,7.1,4.2,11.3c0,5.6-2.3,10.3-6.9,14.1S568.3,148.1,561,148.1z"/>
			<path d="M622.5,148.1c-9.5,0-17.2-3.2-23.1-9.5c-5.9-6.3-8.9-14.3-8.9-23.9c0-9.1,2.9-17,8.6-23.6c5.8-6.6,13.1-9.9,22.1-9.9
				c9.3,0,16.7,3,22.3,9.1s8.4,14.2,8.4,24.3l-0.1,2.2h-49.5c0.3,6.3,2.5,11.3,6.3,15c3.9,3.7,8.4,5.5,13.6,5.5
				c8.4,0,14.2-3.6,17.2-10.8l10.5,4.4c-2,4.9-5.4,8.9-10.1,12.2C635.1,146.4,629.3,148.1,622.5,148.1z M639.4,107.1
				c-0.3-3.6-1.9-7-4.9-10.2S627,92,621,92c-4.4,0-8.1,1.4-11.3,4.1c-3.2,2.7-5.4,6.4-6.6,11L639.4,107.1L639.4,107.1z"/>
		</g>
	</g>
</g>
</svg>
