<?xml version="1.0" encoding="utf-8"?>
<!-- Generator: Adobe Illustrator 23.0.6, SVG Export Plug-In . SVG Version: 6.00 Build 0)  -->
<svg version="1.1" id="Layer_1" xmlns="http://www.w3.org/2000/svg" xmlns:xlink="http://www.w3.org/1999/xlink" x="0px" y="0px"
	 viewBox="0 0 1243.3 435.2" style="enable-background:new 0 0 1243.3 435.2;" xml:space="preserve">
<style type="text/css">
	.st0{fill:#00D8FF;}
	.st1{fill:none;stroke:#00D8FF;stroke-width:24;}
</style>
<g>
	
		<ellipse transform="matrix(0.3163 -0.9487 0.9487 0.3163 -38.8915 380.3921)" class="st0" cx="244.4" cy="217.2" rx="43.4" ry="43.4"/>
	<g>
		<path class="st1" d="M244.4,129c58.2,0,112.3,8.4,153.1,22.4c49.1,16.9,79.4,42.6,79.4,65.8c0,24.2-32,51.4-84.8,68.9
			c-39.9,13.2-92.4,20.1-147.6,20.1c-56.7,0-110.3-6.5-150.7-20.3C42.7,268.5,12,241,12,217.2c0-23,28.8-48.5,77.3-65.4
			C130.2,137.5,185.6,129,244.4,129L244.4,129z"/>
		<path class="st1" d="M167.7,173.3C196.8,123,231,80.2,263.6,52c39.2-34.1,76.5-47.5,96.6-35.9c21,12.1,28.6,53.4,17.3,107.9
			c-8.5,41.2-28.7,90.1-56.3,138c-28.3,49-60.7,92.3-92.8,120.3c-40.6,35.5-79.9,48.4-100.4,36.5c-20-11.5-27.6-49.2-18-99.6
			C118.1,276.6,138.4,224.3,167.7,173.3L167.7,173.3z"/>
		<path class="st1" d="M167.8,262c-29.2-50.4-49-101.4-57.3-143.7c-10-51-2.9-90,17.2-101.6c20.9-12.1,60.6,1.9,102.1,38.8
			c31.4,27.9,63.7,69.9,91.4,117.7c28.4,49,49.7,98.7,58,140.5c10.5,52.9,2,93.3-18.5,105.2c-19.9,11.5-56.4-0.7-95.3-34.1
			C232.4,356.5,197.2,312.8,167.8,262L167.8,262z"/>
	</g>
</g>
<g>
	<path class="st0" d="M632.8,106.7c13.2-2.7,32.1-4.2,50.1-4.2c27.9,0,45.9,5.1,58.5,16.5c10.2,9,15.9,22.8,15.9,38.4
		c0,26.7-16.8,44.4-38.1,51.6v0.9c15.6,5.4,24.9,19.8,29.7,40.8c6.6,28.2,11.4,47.7,15.6,55.5h-27c-3.3-5.7-7.8-23.1-13.5-48.3
		c-6-27.9-16.8-38.4-40.5-39.3h-24.6v87.6h-26.1V106.7z M658.9,198.8h26.7c27.9,0,45.6-15.3,45.6-38.4c0-26.1-18.9-37.5-46.5-37.8
		c-12.6,0-21.6,1.2-25.8,2.4V198.8z"/>
	<path class="st0" d="M795.7,238.4c0.6,35.7,23.4,50.4,49.8,50.4c18.9,0,30.3-3.3,40.2-7.5l4.5,18.9c-9.3,4.2-25.2,9-48.3,9
		c-44.7,0-71.4-29.4-71.4-73.2s25.8-78.3,68.1-78.3c47.4,0,60,41.7,60,68.4c0,4.1-0.3,8.2-0.9,12.3L795.7,238.4z M873.1,219.5
		c0.3-16.8-6.9-42.9-36.6-42.9c-26.7,0-38.4,24.6-40.5,42.9H873.1z"/>
	<path class="st0" d="M998.2,306.2l-2.1-18.3h-0.9c-8.1,11.4-23.7,21.6-44.4,21.6c-29.4,0-44.4-20.7-44.4-41.7
		c0-35.1,31.2-54.3,87.3-54v-3c0-12-3.3-33.6-33-33.6c-13.5,0-27.6,4.2-37.8,10.8l-6-17.4c12-7.8,29.4-12.9,47.7-12.9
		c44.4,0,55.2,30.3,55.2,59.4v54.3c0,12.6,0.6,24.9,2.4,34.8H998.2z M994.3,232.1c-28.8-0.6-61.5,4.5-61.5,32.7
		c0,17.1,11.4,25.2,24.9,25.2c18.9,0,30.9-12,35.1-24.3c0.9-2.7,1.4-5.5,1.5-8.4V232.1z"/>
	<path class="st0" d="M1152.4,300.8c-6.9,3.6-22.2,8.4-41.7,8.4c-43.8,0-72.3-29.7-72.3-74.1c0-44.7,30.6-77.1,78-77.1
		c15.6,0,29.4,3.9,36.6,7.5l-6,20.4c-6.3-3.6-16.2-6.9-30.6-6.9c-33.3,0-51.3,24.6-51.3,54.9c0,33.6,21.6,54.3,50.4,54.3
		c15,0,24.9-3.9,32.4-7.2L1152.4,300.8z"/>
	<path class="st0" d="M1205.5,119.3V161h37.8v20.1h-37.8v78.3c0,18,5.1,28.2,19.8,28.2c5.2,0.1,10.3-0.5,15.3-1.8l1.2,19.8
		c-5.1,2.1-13.2,3.6-23.4,3.6c-12.3,0-22.2-3.9-28.5-11.1c-7.5-7.8-10.2-20.7-10.2-37.8v-79.2h-22.5V161h22.5v-34.8L1205.5,119.3z"
		/>
</g>
</svg>
